# xmcd
#
# Track frame offsets:
# 150
# 26430
# 43607
# 70982
# 108072
# 134655
# 150860
# 167417
# 185677
# 204405
# 226537
# 245472
# 266590
# 289222
# 310162
# 335785
#
# Disc length: 4743 seconds
#
# Revision: 3
# Processed by: cddbd v1.4PL0 Copyright (c) Steve Scherf et al.
# Submitted via: Axialis_AX_CDPlayer 2.6
#
DISCID=d8128510
DTITLE=Dire Straits - Sultans of swing
DYEAR=1998
DGENRE=Rock
TTITLE0=Sultans of swing
TTITLE1=Lady writer
TTITLE2=Romeo and Juliet
TTITLE3=Tunnel of love
TTITLE4=Private investigations
TTITLE5=Twisting by the pool
TTITLE6=Love over gold (live)
TTITLE7=So far away
TTITLE8=Money for nothing
TTITLE9=Brothers in arms
TTITLE10=Walk of life
TTITLE11=Calling Elvis
TTITLE12=Heavy fuel
TTITLE13=On every street
TTITLE14=Your latest trick (live)
TTITLE15=Local hero - Wild theme (live)
EXTD=
EXTT0=
EXTT1=
EXTT2=
EXTT3=
EXTT4=
EXTT5=
EXTT6=
EXTT7=
EXTT8=
EXTT9=
EXTT10=
EXTT11=
EXTT12=
EXTT13=
EXTT14=
EXTT15=
PLAYORDER=
